<mxfile host="65bd71144e">
    <diagram id="lTy6Op0Nw9zFiXOboUTK" name="Page-1">
        <mxGraphModel dx="1216" dy="692" grid="1" gridSize="10" guides="1" tooltips="1" connect="1" arrows="1" fold="1" page="1" pageScale="1" pageWidth="827" pageHeight="1169" math="0" shadow="0">
            <root>
                <mxCell id="0"/>
                <mxCell id="1" parent="0"/>
                <mxCell id="3" value="- CLICK -&lt;br&gt;? 1&lt;br&gt;&lt;br&gt;&lt;br&gt;&lt;br&gt;- CLICK -&lt;br&gt;? 1&lt;br&gt;&lt;br&gt;&lt;br&gt;&lt;br&gt;- CLICK -&lt;br&gt;? 1&lt;br&gt;&lt;br&gt;&lt;br&gt;&lt;br&gt;YOU WIN ! ! !&lt;br&gt;" style="rounded=0;whiteSpace=wrap;html=1;align=left;verticalAlign=top;" vertex="1" parent="1">
                    <mxGeometry x="170" y="200" width="440" height="280" as="geometry"/>
                </mxCell>
            </root>
        </mxGraphModel>
    </diagram>
</mxfile>